<svg width="24" height="25" viewBox="0 0 24 25" fill="none" xmlns="http://www.w3.org/2000/svg">
<path d="M12.2971 12.2927C12.3924 12.2605 12.4887 12.2318 12.5854 12.203C12.402 11.7805 12.2018 11.3571 11.9926 10.939C8.22937 12.0861 4.61842 12.0032 4.48914 11.9984C4.48674 12.0783 4.48291 12.1553 4.48291 12.2352C4.48291 14.1464 5.19112 15.8881 6.35566 17.2053C6.3547 17.2033 6.35279 17.2014 6.35279 17.2014C6.35279 17.2014 8.35339 13.5909 12.2971 12.2927Z" fill="#1E266D"/>
<path d="M11.3864 9.79443C10.1218 7.507 8.7705 5.64061 8.67329 5.50854C6.63486 6.48804 5.11358 8.39926 4.63953 10.7028C4.83202 10.7047 7.87746 10.7437 11.3864 9.79443Z" fill="#1E266D"/>
<path d="M16.6182 6.65353C15.3311 5.49909 13.6412 4.79834 11.7915 4.79834C11.1977 4.79834 10.6217 4.87144 10.0686 5.00691C10.1787 5.15651 11.5521 7.01024 12.8014 9.3464C15.5595 8.29333 16.6005 6.68082 16.6182 6.65353Z" fill="#1E266D"/>
<path d="M10.0413 5.0144C10.0327 5.01538 10.0255 5.01635 10.0169 5.02025C10.0308 5.01635 10.0394 5.0144 10.0394 5.0144H10.0413Z" fill="#1E266D"/>
<path d="M7.29897 18.0989L7.3004 18.0959C7.24629 18.0531 7.18883 18.0141 7.13568 17.9683C7.23289 18.0487 7.29897 18.0989 7.29897 18.0989Z" fill="#1E266D"/>
<path d="M13.3636 10.4543C13.5335 10.8096 13.6973 11.1702 13.8501 11.5328C13.9032 11.6634 13.9559 11.7905 14.0071 11.9182C16.5182 11.5966 18.9919 12.138 19.0977 12.1599C19.0809 10.3963 18.4608 8.77848 17.4356 7.51099C17.4213 7.53097 16.2495 9.25507 13.3636 10.4543Z" fill="#1E266D"/>
<path d="M13.035 13.4521C8.72162 14.9828 7.31382 18.0664 7.30042 18.0957C8.54014 19.0805 10.0964 19.6726 11.791 19.6726C12.8028 19.6726 13.7672 19.4631 14.6444 19.0835C14.5357 18.4334 14.1115 16.1557 13.0824 13.4355C13.0671 13.4419 13.0513 13.4468 13.035 13.4521Z" fill="#1E266D"/>
<path d="M11.7915 0.23584C5.27923 0.23584 0 5.6094 0 12.2358C0 18.8633 5.27876 24.2349 11.7915 24.2349C18.3037 24.2349 23.583 18.8633 23.583 12.2358C23.583 5.6094 18.3033 0.23584 11.7915 0.23584ZM19.6761 15.6261C19.4621 16.1431 19.1963 16.6406 18.887 17.105C18.581 17.5665 18.2295 17.9997 17.8421 18.394C17.4548 18.7872 17.0295 19.1449 16.5766 19.4573C16.1193 19.7716 15.6289 20.0416 15.1223 20.2604C14.6052 20.4821 14.0646 20.6527 13.5148 20.7677C12.9508 20.8856 12.3709 20.9455 11.791 20.9455C11.2111 20.9455 10.6313 20.8856 10.0672 20.7677C9.51747 20.6527 8.9759 20.4821 8.4597 20.2604C7.95213 20.0416 7.46228 19.7711 7.00498 19.4573C6.55248 19.1449 6.12631 18.7872 5.7394 18.394C5.35202 17.9997 5.00055 17.567 4.69457 17.105C4.38572 16.6406 4.12044 16.1426 3.90544 15.6261C3.68708 15.0998 3.51901 14.5496 3.406 13.9892C3.29156 13.4151 3.23314 12.826 3.23314 12.2358C3.23314 11.6457 3.29156 11.0556 3.406 10.4825C3.51901 9.92209 3.68708 9.37095 3.90544 8.84563C4.12044 8.32859 4.38619 7.83007 4.69457 7.36518C5.00055 6.9037 5.35202 6.47145 5.7394 6.07625C6.12631 5.68299 6.552 5.32628 7.00498 5.01391C7.46228 4.69911 7.95213 4.42865 8.4597 4.20985C8.9759 3.98715 9.51747 3.81659 10.0672 3.70256C10.6313 3.58561 11.2111 3.52567 11.791 3.52567C12.3709 3.52567 12.9508 3.58561 13.5148 3.70256C14.0646 3.81659 14.6052 3.98715 15.1223 4.20985C15.6294 4.42865 16.1193 4.69911 16.5766 5.01391C17.0291 5.32628 17.4548 5.68299 17.8421 6.07625C18.2295 6.47145 18.581 6.90321 18.887 7.36518C19.1963 7.82959 19.4621 8.32859 19.6761 8.84563C19.8949 9.37095 20.0625 9.92209 20.1746 10.4825C20.2905 11.0556 20.3494 11.6457 20.3494 12.2358C20.3494 12.826 20.2905 13.4151 20.1746 13.9892C20.0625 14.5496 19.8954 15.0998 19.6761 15.6261Z" fill="#1E266D"/>
<path d="M14.4529 13.0916C15.4115 15.7728 15.8003 17.9559 15.8755 18.4042C17.516 17.2776 18.682 15.4882 19.0067 13.4152C18.8563 13.3659 16.8117 12.7071 14.4529 13.0916Z" fill="#1E266D"/>
</svg>
