<svg width="24" height="25" viewBox="0 0 24 25" fill="none" xmlns="http://www.w3.org/2000/svg">
<path d="M18.3785 2.13037H5.50331C3.26684 2.13037 1.44736 4.02523 1.44736 6.35488V10.8175V19.767C1.44736 22.0967 3.26684 23.9915 5.50331 23.9915H18.379C20.6154 23.9915 22.4345 22.0967 22.4345 19.767V10.8171V6.35444C22.4341 4.02479 20.615 2.13037 18.3785 2.13037ZM19.5419 4.64964L20.0058 4.64788V5.12898V8.35336L16.4604 8.36527L16.4482 4.66022L19.5419 4.64964ZM8.94543 10.8171C9.61768 9.84826 10.7082 9.21282 11.9409 9.21282C13.1737 9.21282 14.2642 9.84826 14.9356 10.8171C15.3729 11.4494 15.6349 12.2229 15.6349 13.0607C15.6349 15.1822 13.9763 16.9082 11.9405 16.9082C9.90343 16.9082 8.2465 15.1822 8.2465 13.0607C8.24693 12.2229 8.50812 11.4494 8.94543 10.8171ZM20.3894 19.7666C20.3894 20.9224 19.4873 21.8612 18.3785 21.8612H5.50331C4.39418 21.8612 3.49205 20.9224 3.49205 19.7666V10.8171H6.62472C6.35421 11.5103 6.20223 12.2674 6.20223 13.0607C6.20223 16.3561 8.77609 19.039 11.9409 19.039C15.1053 19.039 17.6792 16.3561 17.6792 13.0607C17.6792 12.2674 17.5264 11.5103 17.2559 10.8171H20.3894V19.7666Z" fill="#1E266D"/>
</svg>
