<svg width="26" height="24" viewBox="0 0 26 24" fill="none" xmlns="http://www.w3.org/2000/svg">
<g clip-path="url(#clip0)">
<path d="M25.4386 4.15688C24.504 4.57631 23.4982 4.85922 22.4429 4.98583C23.5204 4.33455 24.3466 3.30292 24.7363 2.07226C23.7284 2.67613 22.6127 3.11431 21.4242 3.35086C20.4731 2.32756 19.1174 1.68774 17.6172 1.68774C14.737 1.68774 12.4019 4.04538 12.4019 6.95374C12.4019 7.36587 12.4478 7.76758 12.5371 8.15366C8.20214 7.93379 4.35851 5.83771 1.78593 2.65164C1.33696 3.42901 1.07996 4.33351 1.07996 5.29949C1.07996 7.1262 2.00062 8.73825 3.40018 9.68235C2.54558 9.65474 1.74104 9.41767 1.03764 9.02325C1.03713 9.04514 1.03713 9.06754 1.03713 9.08995C1.03713 11.6409 2.83509 13.7687 5.22136 14.2533C4.78374 14.3731 4.3229 14.4377 3.84709 14.4377C3.51062 14.4377 3.18395 14.4049 2.86554 14.3429C3.52971 16.4348 5.45566 17.9578 7.73769 18C5.95262 19.4125 3.70414 20.2545 1.26007 20.2545C0.839475 20.2545 0.424044 20.2295 0.0158386 20.1805C2.3247 21.6753 5.06603 22.5465 8.0112 22.5465C17.6053 22.5465 22.8511 14.5227 22.8511 7.56386C22.8511 7.33565 22.8464 7.10797 22.8366 6.88184C23.8554 6.14094 24.7399 5.213 25.4386 4.15688Z" fill="#1E266D"/>
</g>
<defs>
<clipPath id="clip0">
<rect width="25.6" height="24" fill="white"/>
</clipPath>
</defs>
</svg>
